<?xml version="1.0" encoding="UTF-8"?>
<!DOCTYPE svg PUBLIC "-//W3C//DTD SVG 1.1//EN" "http://www.w3.org/Graphics/SVG/1.1/DTD/svg11.dtd">
<svg xmlns="http://www.w3.org/2000/svg" version="1.1" width="300px" height="168px" style="shape-rendering:geometricPrecision; text-rendering:geometricPrecision; image-rendering:optimizeQuality; fill-rule:evenodd; clip-rule:evenodd" xmlns:xlink="http://www.w3.org/1999/xlink">
<g><path style="opacity:1" fill="#020202" d="M -0.5,0.5 C -0.5,0.166667 -0.5,-0.166667 -0.5,-0.5C 99.5,-0.5 199.5,-0.5 299.5,-0.5C 299.5,14.1667 299.5,28.8333 299.5,43.5C 295.094,45.0325 290.427,46.0325 285.5,46.5C 290.183,47.7195 294.85,47.7195 299.5,46.5C 299.5,86.8333 299.5,127.167 299.5,167.5C 199.5,167.5 99.5,167.5 -0.5,167.5C -0.5,165.833 -0.5,164.167 -0.5,162.5C 31.5017,162.667 63.5017,162.5 95.5,162C 88.8333,161.667 82.1667,161.333 75.5,161C 78.5,160.667 81.5,160.333 84.5,160C 75.8333,159.833 67.1667,159.667 58.5,159.5C 38.9843,160.933 19.3176,161.6 -0.5,161.5C -0.5,156.5 -0.5,151.5 -0.5,146.5C 80.1396,144.851 165.473,143.685 255.5,143C 170.167,142.5 84.834,142.333 -0.5,142.5C -0.5,140.5 -0.5,138.5 -0.5,136.5C 34.1667,136.5 68.8333,136.5 103.5,136.5C 128.833,136.5 154.167,136.5 179.5,136.5C 199.498,136 219.498,135.5 239.5,135C 223.503,134.5 207.503,134.333 191.5,134.5C 146.167,134.5 100.833,134.5 55.5,134.5C 36.8333,134.5 18.1667,134.5 -0.5,134.5C -0.5,131.833 -0.5,129.167 -0.5,126.5C 31.5017,126.667 63.5017,126.5 95.5,126C 90.8333,125.667 86.1667,125.333 81.5,125C 83.5,124.667 85.5,124.333 87.5,124C 58.1596,123.315 28.8262,123.482 -0.5,124.5C -0.5,119.833 -0.5,115.167 -0.5,110.5C 50.1286,110.496 50.1286,109.829 -0.5,108.5C -0.5,108.167 -0.5,107.833 -0.5,107.5C 43.5,107.5 87.5,107.5 131.5,107.5C 168.184,107.927 192.851,107.594 205.5,106.5C 205.5,104.5 205.5,102.5 205.5,100.5C 205.5,99.8333 205.833,99.5 206.5,99.5C 218.833,99.5 231.167,99.5 243.5,99.5C 243.5,87.1667 243.5,74.8333 243.5,62.5C 231.167,62.5 218.833,62.5 206.5,62.5C 156.167,62.5 105.833,62.5 55.5,62.5C 36.8333,62.5 18.1667,62.5 -0.5,62.5C -0.5,59.8333 -0.5,57.1667 -0.5,54.5C 23.169,54.6666 46.8357,54.5 70.5,54C 66.5,53.6667 62.5,53.3333 58.5,53C 62.8333,52.6667 67.1667,52.3333 71.5,52C 65.8431,51.5006 60.1764,51.3339 54.5,51.5C 54.1667,40.8333 53.8333,40.8333 53.5,51.5C 41.4771,51.3008 29.4771,51.6341 17.5,52.5C 17.1667,39.1667 16.8333,39.1667 16.5,52.5C 10.8333,52.5 5.16667,52.5 -0.5,52.5C -0.5,48.8333 -0.5,45.1667 -0.5,41.5C 66.1667,40.8333 66.1667,40.1667 -0.5,39.5C -0.5,39.1667 -0.5,38.8333 -0.5,38.5C 47.4575,37.1722 47.4575,36.5056 -0.5,36.5C -0.5,36.1667 -0.5,35.8333 -0.5,35.5C 47.1667,35.5 94.8333,35.5 142.5,35.5C 166.833,35.5 191.167,35.5 215.5,35.5C 216.477,32.7131 216.81,29.7131 216.5,26.5C 207.833,26.5 199.167,26.5 190.5,26.5C 177.5,26.5 164.5,26.5 151.5,26.5C 110.5,26.5 69.5,26.5 28.5,26.5C 18.8333,26.5 9.16667,26.5 -0.5,26.5C -0.5,23.8333 -0.5,21.1667 -0.5,18.5C 20.8333,18.5 42.1667,18.5 63.5,18.5C 71.5069,18.6664 79.5069,18.4997 87.5,18C 81.5,17.6667 75.5,17.3333 69.5,17C 75.1667,16.6667 80.8333,16.3333 86.5,16C 79.1742,15.5003 71.8409,15.3337 64.5,15.5C 42.8337,15.8535 21.1671,16.1869 -0.5,16.5C -0.5,12.8333 -0.5,9.16667 -0.5,5.5C 12.992,5.9803 26.3254,5.4803 39.5,4C 26.1708,3.5001 12.8375,3.33344 -0.5,3.5C -0.5,3.16667 -0.5,2.83333 -0.5,2.5C 42.1111,1.17626 42.1111,0.50959 -0.5,0.5 Z"/></g>
<g><path style="opacity:1" fill="#282828" d="M -0.5,0.5 C 42.1111,0.50959 42.1111,1.17626 -0.5,2.5C -0.5,1.83333 -0.5,1.16667 -0.5,0.5 Z"/></g>
<g><path style="opacity:1" fill="#1d1d1d" d="M -0.5,3.5 C 12.8375,3.33344 26.1708,3.5001 39.5,4C 26.3254,5.4803 12.992,5.9803 -0.5,5.5C -0.5,4.83333 -0.5,4.16667 -0.5,3.5 Z"/></g>
<g><path style="opacity:1" fill="#242424" d="M 83.5,10.5 C 94.1874,10.168 104.854,10.5013 115.5,11.5C 104.515,12.6658 93.5151,12.8324 82.5,12C 83.056,11.6174 83.3893,11.1174 83.5,10.5 Z"/></g>
<g><path style="opacity:1" fill="#404040" d="M 64.5,15.5 C 59.0149,16.3272 53.3482,16.8272 47.5,17C 53.0158,17.1733 58.3491,17.6733 63.5,18.5C 42.1667,18.5 20.8333,18.5 -0.5,18.5C -0.5,17.8333 -0.5,17.1667 -0.5,16.5C 21.1671,16.1869 42.8337,15.8535 64.5,15.5 Z"/></g>
<g><path style="opacity:1" fill="#232323" d="M 64.5,15.5 C 71.8409,15.3337 79.1742,15.5003 86.5,16C 80.8333,16.3333 75.1667,16.6667 69.5,17C 75.5,17.3333 81.5,17.6667 87.5,18C 79.5069,18.4997 71.5069,18.6664 63.5,18.5C 58.3491,17.6733 53.0158,17.1733 47.5,17C 53.3482,16.8272 59.0149,16.3272 64.5,15.5 Z"/></g>
<g><path style="opacity:1" fill="#222222" d="M 37.5,23.5 C 93.9985,22.3348 150.665,22.1681 207.5,23C 150.836,24.7857 94.169,24.9524 37.5,23.5 Z"/></g>
<g><path style="opacity:1" fill="#727272" d="M 28.5,26.5 C 69.5,26.5 110.5,26.5 151.5,26.5C 151.5,26.8333 151.5,27.1667 151.5,27.5C 135.5,27.5 119.5,27.5 103.5,27.5C 78.661,27.169 53.9944,27.5023 29.5,28.5C 29.1667,28.5 28.8333,28.5 28.5,28.5C 28.5,27.8333 28.5,27.1667 28.5,26.5 Z"/></g>
<g><path style="opacity:1" fill="#5b5b5b" d="M 151.5,27.5 C 151.5,27.1667 151.5,26.8333 151.5,26.5C 164.5,26.5 177.5,26.5 190.5,26.5C 190.5,26.8333 190.5,27.1667 190.5,27.5C 186.629,27.185 182.962,27.5184 179.5,28.5C 179.167,28.5 178.833,28.5 178.5,28.5C 169.682,27.5067 160.682,27.1734 151.5,27.5 Z"/></g>
<g><path style="opacity:1" fill="#3a3a3a" d="M 190.5,27.5 C 190.5,27.1667 190.5,26.8333 190.5,26.5C 199.167,26.5 207.833,26.5 216.5,26.5C 216.81,29.7131 216.477,32.7131 215.5,35.5C 215.5,35.1667 215.5,34.8333 215.5,34.5C 215.5,32.1667 215.5,29.8333 215.5,27.5C 207.167,27.5 198.833,27.5 190.5,27.5 Z"/></g>
<g><path style="opacity:1" fill="#404040" d="M -0.5,26.5 C 9.16667,26.5 18.8333,26.5 28.5,26.5C 28.5,27.1667 28.5,27.8333 28.5,28.5C 18.8333,28.5 9.16667,28.5 -0.5,28.5C -0.5,27.8333 -0.5,27.1667 -0.5,26.5 Z"/></g>
<g><path style="opacity:1" fill="#242424" d="M 29.5,28.5 C 53.9944,27.5023 78.661,27.169 103.5,27.5C 103.5,27.8333 103.5,28.1667 103.5,28.5C 91.5,28.5 79.5,28.5 67.5,28.5C 67.5,30.5 67.5,32.5 67.5,34.5C 66.8333,34.5 66.1667,34.5 65.5,34.5C 65.5,32.5 65.5,30.5 65.5,28.5C 53.5,28.5 41.5,28.5 29.5,28.5 Z"/></g>
<g><path style="opacity:1" fill="#010101" d="M 177.5,28.5 C 177.5,30.5 177.5,32.5 177.5,34.5C 165.833,34.5 154.167,34.5 142.5,34.5C 141.539,32.7354 141.205,30.7354 141.5,28.5C 153.5,28.5 165.5,28.5 177.5,28.5 Z"/></g>
<g><path style="opacity:1" fill="#050505" d="M 190.5,27.5 C 198.833,27.5 207.167,27.5 215.5,27.5C 215.5,29.8333 215.5,32.1667 215.5,34.5C 203.5,34.5 191.5,34.5 179.5,34.5C 179.5,32.5 179.5,30.5 179.5,28.5C 182.962,27.5184 186.629,27.185 190.5,27.5 Z"/></g>
<g><path style="opacity:1" fill="#060606" d="M -0.5,28.5 C 9.16667,28.5 18.8333,28.5 28.5,28.5C 28.5,30.5 28.5,32.5 28.5,34.5C 18.8333,34.5 9.16667,34.5 -0.5,34.5C -0.5,32.5 -0.5,30.5 -0.5,28.5 Z"/></g>
<g><path style="opacity:1" fill="#424242" d="M 103.5,27.5 C 119.5,27.5 135.5,27.5 151.5,27.5C 160.682,27.1734 169.682,27.5067 178.5,28.5C 178.167,28.5 177.833,28.5 177.5,28.5C 165.5,28.5 153.5,28.5 141.5,28.5C 141.205,30.7354 141.539,32.7354 142.5,34.5C 142.5,34.8333 142.5,35.1667 142.5,35.5C 94.8333,35.5 47.1667,35.5 -0.5,35.5C -0.5,35.1667 -0.5,34.8333 -0.5,34.5C 9.16667,34.5 18.8333,34.5 28.5,34.5C 28.5,32.5 28.5,30.5 28.5,28.5C 28.8333,28.5 29.1667,28.5 29.5,28.5C 29.5,30.5 29.5,32.5 29.5,34.5C 41.5,34.5 53.5,34.5 65.5,34.5C 66.1667,34.5 66.8333,34.5 67.5,34.5C 79.5,34.5 91.5,34.5 103.5,34.5C 103.5,32.5 103.5,30.5 103.5,28.5C 103.5,28.1667 103.5,27.8333 103.5,27.5 Z"/></g>
<g><path style="opacity:1" fill="#010101" d="M 104.5,28.5 C 116.5,28.5 128.5,28.5 140.5,28.5C 140.5,30.5 140.5,32.5 140.5,34.5C 128.5,34.5 116.5,34.5 104.5,34.5C 104.5,32.5 104.5,30.5 104.5,28.5 Z"/></g>
<g><path style="opacity:1" fill="#020202" d="M 103.5,28.5 C 103.5,30.5 103.5,32.5 103.5,34.5C 91.5,34.5 79.5,34.5 67.5,34.5C 67.5,32.5 67.5,30.5 67.5,28.5C 79.5,28.5 91.5,28.5 103.5,28.5 Z"/></g>
<g><path style="opacity:1" fill="#020202" d="M 29.5,28.5 C 41.5,28.5 53.5,28.5 65.5,28.5C 65.5,30.5 65.5,32.5 65.5,34.5C 53.5,34.5 41.5,34.5 29.5,34.5C 29.5,32.5 29.5,30.5 29.5,28.5 Z"/></g>
<g><path style="opacity:1" fill="#1d1d1d" d="M 177.5,28.5 C 177.833,28.5 178.167,28.5 178.5,28.5C 178.833,28.5 179.167,28.5 179.5,28.5C 179.5,30.5 179.5,32.5 179.5,34.5C 191.5,34.5 203.5,34.5 215.5,34.5C 215.5,34.8333 215.5,35.1667 215.5,35.5C 191.167,35.5 166.833,35.5 142.5,35.5C 142.5,35.1667 142.5,34.8333 142.5,34.5C 154.167,34.5 165.833,34.5 177.5,34.5C 177.5,32.5 177.5,30.5 177.5,28.5 Z"/></g>
<g><path style="opacity:1" fill="#2a2a2a" d="M -0.5,36.5 C 47.4575,36.5056 47.4575,37.1722 -0.5,38.5C -0.5,37.8333 -0.5,37.1667 -0.5,36.5 Z"/></g>
<g><path style="opacity:1" fill="#181818" d="M -0.5,39.5 C 66.1667,40.1667 66.1667,40.8333 -0.5,41.5C -0.5,40.8333 -0.5,40.1667 -0.5,39.5 Z"/></g>
<g><path style="opacity:1" fill="#373737" d="M 127.5,42.5 C 157.146,41.7633 157.813,41.7633 129.5,42.5C 129.665,45.5184 129.498,48.5184 129,51.5C 128.819,48.3054 128.319,45.3054 127.5,42.5 Z"/></g>
<g><path style="opacity:1" fill="#282828" d="M 90.5,46.5 C 99.8393,46.3335 109.173,46.5002 118.5,47C 118.833,47.3333 119.167,47.6667 119.5,48C 110.506,48.4998 101.506,48.6664 92.5,48.5C 92.6567,49.8734 92.49,51.2068 92,52.5C 91.4954,50.4817 90.9954,48.4817 90.5,46.5 Z"/></g>
<g><path style="opacity:1" fill="#242424" d="M 299.5,43.5 C 299.5,44.5 299.5,45.5 299.5,46.5C 294.85,47.7195 290.183,47.7195 285.5,46.5C 290.427,46.0325 295.094,45.0325 299.5,43.5 Z"/></g>
<g><path style="opacity:1" fill="#3b3b3b" d="M -0.5,54.5 C -0.5,53.8333 -0.5,53.1667 -0.5,52.5C 5.16667,52.5 10.8333,52.5 16.5,52.5C 16.8333,39.1667 17.1667,39.1667 17.5,52.5C 29.4771,51.6341 41.4771,51.3008 53.5,51.5C 53.8333,40.8333 54.1667,40.8333 54.5,51.5C 60.1764,51.3339 65.8431,51.5006 71.5,52C 67.1667,52.3333 62.8333,52.6667 58.5,53C 62.5,53.3333 66.5,53.6667 70.5,54C 46.8357,54.5 23.169,54.6666 -0.5,54.5 Z"/></g>
<g><path style="opacity:1" fill="#191919" d="M 63.5,58.5 C 66.1667,59.1667 68.8333,59.8333 71.5,60.5C 56.7996,60.8276 42.1329,60.3276 27.5,59C 39.4954,58.5001 51.4954,58.3335 63.5,58.5 Z"/></g>
<g><path style="opacity:1" fill="#282828" d="M 63.5,58.5 C 108.835,58.3333 154.168,58.5 199.5,59C 156.847,60.369 114.18,60.869 71.5,60.5C 68.8333,59.8333 66.1667,59.1667 63.5,58.5 Z"/></g>
<g><path style="opacity:1" fill="#474747" d="M -0.5,62.5 C 18.1667,62.5 36.8333,62.5 55.5,62.5C 55.5,62.8333 55.5,63.1667 55.5,63.5C 48.9779,63.1765 42.6446,63.5098 36.5,64.5C 24.1667,64.5 11.8333,64.5 -0.5,64.5C -0.5,63.8333 -0.5,63.1667 -0.5,62.5 Z"/></g>
<g><path style="opacity:1" fill="#2f2f2f" d="M 36.5,64.5 C 42.6446,63.5098 48.9779,63.1765 55.5,63.5C 72.3417,63.1702 89.0084,63.5035 105.5,64.5C 101.5,64.5 97.5,64.5 93.5,64.5C 93.5,66.5 93.5,68.5 93.5,70.5C 93.1667,70.5 92.8333,70.5 92.5,70.5C 92.5,68.5 92.5,66.5 92.5,64.5C 73.8333,64.5 55.1667,64.5 36.5,64.5 Z"/></g>
<g><path style="opacity:1" fill="#525252" d="M 55.5,63.5 C 55.5,63.1667 55.5,62.8333 55.5,62.5C 105.833,62.5 156.167,62.5 206.5,62.5C 206.5,62.8333 206.5,63.1667 206.5,63.5C 193.656,63.1713 180.989,63.5046 168.5,64.5C 168.167,64.5 167.833,64.5 167.5,64.5C 146.833,64.5 126.167,64.5 105.5,64.5C 89.0084,63.5035 72.3417,63.1702 55.5,63.5 Z"/></g>
<g><path style="opacity:1" fill="#262626" d="M 168.5,64.5 C 180.989,63.5046 193.656,63.1713 206.5,63.5C 205.631,65.717 205.298,68.0504 205.5,70.5C 205.167,70.5 204.833,70.5 204.5,70.5C 204.5,68.5 204.5,66.5 204.5,64.5C 192.5,64.5 180.5,64.5 168.5,64.5 Z"/></g>
<g><path style="opacity:1" fill="#050505" d="M -0.5,64.5 C 11.8333,64.5 24.1667,64.5 36.5,64.5C 55.1667,64.5 73.8333,64.5 92.5,64.5C 92.5,66.5 92.5,68.5 92.5,70.5C 61.5,70.5 30.5,70.5 -0.5,70.5C -0.5,68.5 -0.5,66.5 -0.5,64.5 Z"/></g>
<g><path style="opacity:1" fill="#020202" d="M 105.5,64.5 C 126.167,64.5 146.833,64.5 167.5,64.5C 167.5,66.5 167.5,68.5 167.5,70.5C 148.833,70.5 130.167,70.5 111.5,70.5C 105.5,70.5 99.5,70.5 93.5,70.5C 93.5,68.5 93.5,66.5 93.5,64.5C 97.5,64.5 101.5,64.5 105.5,64.5 Z"/></g>
<g><path style="opacity:1" fill="#494949" d="M -0.5,71.5 C -0.5,71.1667 -0.5,70.8333 -0.5,70.5C 30.5,70.5 61.5,70.5 92.5,70.5C 92.8333,70.5 93.1667,70.5 93.5,70.5C 99.5,70.5 105.5,70.5 111.5,70.5C 111.5,70.8333 111.5,71.1667 111.5,71.5C 105.5,71.5 99.5,71.5 93.5,71.5C 93.5,75.1667 93.5,78.8333 93.5,82.5C 99.5,83.1667 105.5,83.8333 111.5,84.5C 105.5,84.5 99.5,84.5 93.5,84.5C 93.5,87.8333 93.5,91.1667 93.5,94.5C 93.5,95.1667 93.5,95.8333 93.5,96.5C 93.5,97.1667 93.5,97.8333 93.5,98.5C 93.1667,98.5 92.8333,98.5 92.5,98.5C 92.5,97.8333 92.5,97.1667 92.5,96.5C 92.8242,92.4454 92.4909,88.4454 91.5,84.5C 90.8313,86.6309 90.1646,88.6309 89.5,90.5C 89.5,84.1667 89.5,77.8333 89.5,71.5C 78.5,71.5 67.5,71.5 56.5,71.5C 56.5,76.8333 56.5,82.1667 56.5,87.5C 56.5,88.5 56.5,89.5 56.5,90.5C 55.1667,90.5 53.8333,90.5 52.5,90.5C 41.1667,90.5 29.8333,90.5 18.5,90.5C 18.1667,90.5 17.8333,90.5 17.5,90.5C 11.5,90.5 5.5,90.5 -0.5,90.5C -0.5,90.1667 -0.5,89.8333 -0.5,89.5C 17.5316,90.153 35.1983,89.4863 52.5,87.5C 52.5,82.1667 52.5,76.8333 52.5,71.5C 34.8333,71.5 17.1667,71.5 -0.5,71.5 Z"/></g>
<g><path style="opacity:1" fill="#333333" d="M 167.5,64.5 C 167.833,64.5 168.167,64.5 168.5,64.5C 168.5,66.5 168.5,68.5 168.5,70.5C 168.5,70.8333 168.5,71.1667 168.5,71.5C 168.5,79.1667 168.5,86.8333 168.5,94.5C 168.5,95.1667 168.5,95.8333 168.5,96.5C 168.5,97.1667 168.5,97.8333 168.5,98.5C 168.167,98.5 167.833,98.5 167.5,98.5C 167.5,97.8333 167.5,97.1667 167.5,96.5C 167.5,95.8333 167.5,95.1667 167.5,94.5C 167.831,86.8045 167.497,79.1378 166.5,71.5C 165.504,77.7985 165.17,84.1318 165.5,90.5C 165.167,90.5 164.833,90.5 164.5,90.5C 164.5,84.1667 164.5,77.8333 164.5,71.5C 153.5,71.5 142.5,71.5 131.5,71.5C 131.5,73.5 131.5,75.5 131.5,77.5C 158.167,77.8333 158.167,78.1667 131.5,78.5C 131.5,83.8333 131.5,89.1667 131.5,94.5C 131.5,95.1667 131.5,95.8333 131.5,96.5C 118.833,96.5 106.167,96.5 93.5,96.5C 93.5,95.8333 93.5,95.1667 93.5,94.5C 105.5,94.5 117.5,94.5 129.5,94.5C 129.825,86.6484 129.492,78.9818 128.5,71.5C 127.833,71.5 127.167,71.5 126.5,71.5C 121.5,71.5 116.5,71.5 111.5,71.5C 111.5,71.1667 111.5,70.8333 111.5,70.5C 130.167,70.5 148.833,70.5 167.5,70.5C 167.5,68.5 167.5,66.5 167.5,64.5 Z"/></g>
<g><path style="opacity:1" fill="#020202" d="M 89.5,90.5 C 89.5,91.8333 89.5,93.1667 89.5,94.5C 78.585,94.1797 67.7517,94.513 57,95.5C 56.5065,93.8659 56.3398,92.1992 56.5,90.5C 64.1739,90.6664 71.8406,90.4997 79.5,90C 74.1667,89.3333 74.1667,88.6667 79.5,88C 71.8406,87.5003 64.1739,87.3336 56.5,87.5C 56.5,82.1667 56.5,76.8333 56.5,71.5C 67.5,71.5 78.5,71.5 89.5,71.5C 89.5,77.8333 89.5,84.1667 89.5,90.5 Z"/></g>
<g><path style="opacity:1" fill="#010101" d="M 111.5,71.5 C 116.5,71.5 121.5,71.5 126.5,71.5C 126.5,73.5 126.5,75.5 126.5,77.5C 117.167,77.8333 117.167,78.1667 126.5,78.5C 126.5,80.1667 126.5,81.8333 126.5,83.5C 115.514,82.7905 104.514,82.4572 93.5,82.5C 93.5,78.8333 93.5,75.1667 93.5,71.5C 99.5,71.5 105.5,71.5 111.5,71.5 Z"/></g>
<g><path style="opacity:1" fill="#010101" d="M 164.5,90.5 C 164.5,91.8333 164.5,93.1667 164.5,94.5C 153.5,94.5 142.5,94.5 131.5,94.5C 131.5,89.1667 131.5,83.8333 131.5,78.5C 158.167,78.1667 158.167,77.8333 131.5,77.5C 131.5,75.5 131.5,73.5 131.5,71.5C 142.5,71.5 153.5,71.5 164.5,71.5C 164.5,77.8333 164.5,84.1667 164.5,90.5 Z"/></g>
<g><path style="opacity:1" fill="#000000" d="M 168.5,71.5 C 179.5,71.5 190.5,71.5 201.5,71.5C 201.5,79.1667 201.5,86.8333 201.5,94.5C 190.5,94.5 179.5,94.5 168.5,94.5C 168.5,86.8333 168.5,79.1667 168.5,71.5 Z"/></g>
<g><path style="opacity:1" fill="#020202" d="M 206.5,63.5 C 218.5,63.5 230.5,63.5 242.5,63.5C 241.834,75.1527 241.334,86.8194 241,98.5C 240.167,61.1726 239.667,61.1726 239.5,98.5C 228.5,98.5 217.5,98.5 206.5,98.5C 205.506,89.3483 205.173,80.015 205.5,70.5C 205.298,68.0504 205.631,65.717 206.5,63.5 Z"/></g>
<g><path style="opacity:1" fill="#2f2f2f" d="M -0.5,72.5 C 22.1667,73.1667 22.1667,73.8333 -0.5,74.5C -0.5,73.8333 -0.5,73.1667 -0.5,72.5 Z"/></g>
<g><path style="opacity:1" fill="#131313" d="M -0.5,72.5 C -0.5,72.1667 -0.5,71.8333 -0.5,71.5C 17.1667,71.5 34.8333,71.5 52.5,71.5C 52.5,76.8333 52.5,82.1667 52.5,87.5C 52.1667,87.5 51.8333,87.5 51.5,87.5C 51.5,84.1667 51.5,80.8333 51.5,77.5C 40.8333,77.5 30.1667,77.5 19.5,77.5C 19.6309,76.6236 19.2975,75.9569 18.5,75.5C 17.8333,79.8333 17.1667,84.1667 16.5,88.5C 15.6616,84.0335 15.3283,79.7002 15.5,75.5C 10.2302,76.4512 4.89683,76.7846 -0.5,76.5C -0.5,75.8333 -0.5,75.1667 -0.5,74.5C 22.1667,73.8333 22.1667,73.1667 -0.5,72.5 Z"/></g>
<g><path style="opacity:1" fill="#090909" d="M 90.5,71.5 C 91.7943,73.0478 92.4609,75.0478 92.5,77.5C 92.3333,79.5 92.1667,81.5 92,83.5C 90.5761,79.7032 90.0761,75.7032 90.5,71.5 Z"/></g>
<g><path style="opacity:1" fill="#000000" d="M -0.5,77.5 C 4.5,77.5 9.5,77.5 14.5,77.5C 14.5,81.1667 14.5,84.8333 14.5,88.5C 9.5,88.5 4.5,88.5 -0.5,88.5C -0.5,84.8333 -0.5,81.1667 -0.5,77.5 Z"/></g>
<g><path style="opacity:1" fill="#000000" d="M 19.5,77.5 C 30.1667,77.5 40.8333,77.5 51.5,77.5C 51.5,80.8333 51.5,84.1667 51.5,87.5C 40.8333,87.5 30.1667,87.5 19.5,87.5C 19.5,84.1667 19.5,80.8333 19.5,77.5 Z"/></g>
<g><path style="opacity:1" fill="#151515" d="M 53.5,71.5 C 54.8117,73.7432 55.4783,76.4098 55.5,79.5C 55.1667,82.1667 54.8333,84.8333 54.5,87.5C 53.5052,82.2079 53.1718,76.8746 53.5,71.5 Z"/></g>
<g><path style="opacity:1" fill="#252525" d="M 126.5,71.5 C 127.167,71.5 127.833,71.5 128.5,71.5C 128.666,78.5079 128.5,85.5079 128,92.5C 126.748,89.9865 126.248,87.3198 126.5,84.5C 121.5,84.5 116.5,84.5 111.5,84.5C 105.5,83.8333 99.5,83.1667 93.5,82.5C 104.514,82.4572 115.514,82.7905 126.5,83.5C 126.5,81.8333 126.5,80.1667 126.5,78.5C 117.167,78.1667 117.167,77.8333 126.5,77.5C 126.5,75.5 126.5,73.5 126.5,71.5 Z"/></g>
<g><path style="opacity:1" fill="#080808" d="M 167.5,94.5 C 165.824,93.8166 165.157,92.4832 165.5,90.5C 165.17,84.1318 165.504,77.7985 166.5,71.5C 167.497,79.1378 167.831,86.8045 167.5,94.5 Z"/></g>
<g><path style="opacity:1" fill="#020202" d="M 128.5,71.5 C 129.492,78.9818 129.825,86.6484 129.5,94.5C 117.5,94.5 105.5,94.5 93.5,94.5C 93.5,91.1667 93.5,87.8333 93.5,84.5C 99.5,84.5 105.5,84.5 111.5,84.5C 116.5,84.5 121.5,84.5 126.5,84.5C 126.248,87.3198 126.748,89.9865 128,92.5C 128.5,85.5079 128.666,78.5079 128.5,71.5 Z"/></g>
<g><path style="opacity:1" fill="#2c2c2c" d="M 19.5,77.5 C 19.5,80.8333 19.5,84.1667 19.5,87.5C 30.1667,87.5 40.8333,87.5 51.5,87.5C 51.8333,87.5 52.1667,87.5 52.5,87.5C 35.1983,89.4863 17.5316,90.153 -0.5,89.5C -0.5,89.1667 -0.5,88.8333 -0.5,88.5C 4.5,88.5 9.5,88.5 14.5,88.5C 14.5,84.8333 14.5,81.1667 14.5,77.5C 9.5,77.5 4.5,77.5 -0.5,77.5C -0.5,77.1667 -0.5,76.8333 -0.5,76.5C 4.89683,76.7846 10.2302,76.4512 15.5,75.5C 15.3283,79.7002 15.6616,84.0335 16.5,88.5C 17.1667,84.1667 17.8333,79.8333 18.5,75.5C 19.2975,75.9569 19.6309,76.6236 19.5,77.5 Z"/></g>
<g><path style="opacity:1" fill="#242424" d="M 56.5,87.5 C 64.1739,87.3336 71.8406,87.5003 79.5,88C 74.1667,88.6667 74.1667,89.3333 79.5,90C 71.8406,90.4997 64.1739,90.6664 56.5,90.5C 56.5,89.5 56.5,88.5 56.5,87.5 Z"/></g>
<g><path style="opacity:1" fill="#040404" d="M -0.5,90.5 C 5.5,90.5 11.5,90.5 17.5,90.5C 17.5,93.1667 17.5,95.8333 17.5,98.5C 11.5,98.5 5.5,98.5 -0.5,98.5C -0.5,95.8333 -0.5,93.1667 -0.5,90.5 Z"/></g>
<g><path style="opacity:1" fill="#202020" d="M 92.5,96.5 C 80.1201,95.8542 68.1201,96.5209 56.5,98.5C 56.1667,98.5 55.8333,98.5 55.5,98.5C 55.1788,96.9519 54.1788,96.2852 52.5,96.5C 52.5,94.5 52.5,92.5 52.5,90.5C 53.8333,90.5 55.1667,90.5 56.5,90.5C 56.3398,92.1992 56.5065,93.8659 57,95.5C 67.7517,94.513 78.585,94.1797 89.5,94.5C 89.5,93.1667 89.5,91.8333 89.5,90.5C 90.1646,88.6309 90.8313,86.6309 91.5,84.5C 92.4909,88.4454 92.8242,92.4454 92.5,96.5 Z"/></g>
<g><path style="opacity:1" fill="#242424" d="M 164.5,90.5 C 164.833,90.5 165.167,90.5 165.5,90.5C 165.157,92.4832 165.824,93.8166 167.5,94.5C 167.5,95.1667 167.5,95.8333 167.5,96.5C 155.5,96.5 143.5,96.5 131.5,96.5C 131.5,95.8333 131.5,95.1667 131.5,94.5C 142.5,94.5 153.5,94.5 164.5,94.5C 164.5,93.1667 164.5,91.8333 164.5,90.5 Z"/></g>
<g><path style="opacity:1" fill="#1a1a1a" d="M 168.5,71.5 C 168.5,71.1667 168.5,70.8333 168.5,70.5C 180.167,70.5 191.833,70.5 203.5,70.5C 203.048,78.8892 203.048,87.2225 203.5,95.5C 191.852,96.4989 180.186,96.8322 168.5,96.5C 168.5,95.8333 168.5,95.1667 168.5,94.5C 179.5,94.5 190.5,94.5 201.5,94.5C 201.5,86.8333 201.5,79.1667 201.5,71.5C 190.5,71.5 179.5,71.5 168.5,71.5 Z"/></g>
<g><path style="opacity:1" fill="#060606" d="M 18.5,90.5 C 29.8333,90.5 41.1667,90.5 52.5,90.5C 52.5,92.5 52.5,94.5 52.5,96.5C 54.1788,96.2852 55.1788,96.9519 55.5,98.5C 52.8333,98.5 50.1667,98.5 47.5,98.5C 37.8333,98.5 28.1667,98.5 18.5,98.5C 18.5,95.8333 18.5,93.1667 18.5,90.5 Z"/></g>
<g><path style="opacity:1" fill="#010101" d="M 92.5,96.5 C 92.5,97.1667 92.5,97.8333 92.5,98.5C 88.1667,98.5 83.8333,98.5 79.5,98.5C 71.8333,98.5 64.1667,98.5 56.5,98.5C 68.1201,96.5209 80.1201,95.8542 92.5,96.5 Z"/></g>
<g><path style="opacity:1" fill="#040404" d="M 93.5,96.5 C 106.167,96.5 118.833,96.5 131.5,96.5C 143.5,96.5 155.5,96.5 167.5,96.5C 167.5,97.1667 167.5,97.8333 167.5,98.5C 142.833,98.5 118.167,98.5 93.5,98.5C 93.5,97.8333 93.5,97.1667 93.5,96.5 Z"/></g>
<g><path style="opacity:1" fill="#030303" d="M 168.5,64.5 C 180.5,64.5 192.5,64.5 204.5,64.5C 204.5,66.5 204.5,68.5 204.5,70.5C 204.5,79.8333 204.5,89.1667 204.5,98.5C 192.5,98.5 180.5,98.5 168.5,98.5C 168.5,97.8333 168.5,97.1667 168.5,96.5C 180.186,96.8322 191.852,96.4989 203.5,95.5C 203.048,87.2225 203.048,78.8892 203.5,70.5C 191.833,70.5 180.167,70.5 168.5,70.5C 168.5,68.5 168.5,66.5 168.5,64.5 Z"/></g>
<g><path style="opacity:1" fill="#434343" d="M 17.5,90.5 C 17.8333,90.5 18.1667,90.5 18.5,90.5C 18.5,93.1667 18.5,95.8333 18.5,98.5C 28.1667,98.5 37.8333,98.5 47.5,98.5C 49.8333,99.1667 52.1667,99.8333 54.5,100.5C 36.1667,100.5 17.8333,100.5 -0.5,100.5C -0.5,99.8333 -0.5,99.1667 -0.5,98.5C 5.5,98.5 11.5,98.5 17.5,98.5C 17.5,95.8333 17.5,93.1667 17.5,90.5 Z"/></g>
<g><path style="opacity:1" fill="#525252" d="M 47.5,98.5 C 50.1667,98.5 52.8333,98.5 55.5,98.5C 55.8333,98.5 56.1667,98.5 56.5,98.5C 64.1667,98.5 71.8333,98.5 79.5,98.5C 83.8333,99.1667 88.1667,99.8333 92.5,100.5C 79.8333,100.5 67.1667,100.5 54.5,100.5C 52.1667,99.8333 49.8333,99.1667 47.5,98.5 Z"/></g>
<g><path style="opacity:1" fill="#707070" d="M 79.5,98.5 C 83.8333,98.5 88.1667,98.5 92.5,98.5C 92.8333,98.5 93.1667,98.5 93.5,98.5C 118.167,98.5 142.833,98.5 167.5,98.5C 167.833,98.5 168.167,98.5 168.5,98.5C 168.5,99.1667 168.5,99.8333 168.5,100.5C 168.167,100.5 167.833,100.5 167.5,100.5C 142.833,100.5 118.167,100.5 93.5,100.5C 93.1667,100.5 92.8333,100.5 92.5,100.5C 88.1667,99.8333 83.8333,99.1667 79.5,98.5 Z"/></g>
<g><path style="opacity:1" fill="#414141" d="M 204.5,70.5 C 204.833,70.5 205.167,70.5 205.5,70.5C 205.173,80.015 205.506,89.3483 206.5,98.5C 206.5,98.8333 206.5,99.1667 206.5,99.5C 205.833,99.5 205.5,99.8333 205.5,100.5C 205.167,100.5 204.833,100.5 204.5,100.5C 192.674,99.9492 180.674,99.9492 168.5,100.5C 168.5,99.8333 168.5,99.1667 168.5,98.5C 180.5,98.5 192.5,98.5 204.5,98.5C 204.5,89.1667 204.5,79.8333 204.5,70.5 Z"/></g>
<g><path style="opacity:1" fill="#262626" d="M 206.5,63.5 C 206.5,63.1667 206.5,62.8333 206.5,62.5C 218.833,62.5 231.167,62.5 243.5,62.5C 243.5,74.8333 243.5,87.1667 243.5,99.5C 231.167,99.5 218.833,99.5 206.5,99.5C 206.5,99.1667 206.5,98.8333 206.5,98.5C 217.5,98.5 228.5,98.5 239.5,98.5C 239.667,61.1726 240.167,61.1726 241,98.5C 241.334,86.8194 241.834,75.1527 242.5,63.5C 230.5,63.5 218.5,63.5 206.5,63.5 Z"/></g>
<g><path style="opacity:1" fill="#050505" d="M -0.5,100.5 C 17.8333,100.5 36.1667,100.5 54.5,100.5C 67.1667,100.5 79.8333,100.5 92.5,100.5C 92.5,102.5 92.5,104.5 92.5,106.5C 61.5,106.5 30.5,106.5 -0.5,106.5C -0.5,104.5 -0.5,102.5 -0.5,100.5 Z"/></g>
<g><path style="opacity:1" fill="#010101" d="M 93.5,100.5 C 118.167,100.5 142.833,100.5 167.5,100.5C 167.5,102.5 167.5,104.5 167.5,106.5C 155.5,106.5 143.5,106.5 131.5,106.5C 118.833,106.5 106.167,106.5 93.5,106.5C 93.5,104.5 93.5,102.5 93.5,100.5 Z"/></g>
<g><path style="opacity:1" fill="#030303" d="M 204.5,100.5 C 204.5,102.5 204.5,104.5 204.5,106.5C 192.5,106.5 180.5,106.5 168.5,106.5C 168.5,104.5 168.5,102.5 168.5,100.5C 180.674,99.9492 192.674,99.9492 204.5,100.5 Z"/></g>
<g><path style="opacity:1" fill="#444444" d="M 92.5,100.5 C 92.8333,100.5 93.1667,100.5 93.5,100.5C 93.5,102.5 93.5,104.5 93.5,106.5C 106.167,106.5 118.833,106.5 131.5,106.5C 131.5,106.833 131.5,107.167 131.5,107.5C 87.5,107.5 43.5,107.5 -0.5,107.5C -0.5,107.167 -0.5,106.833 -0.5,106.5C 30.5,106.5 61.5,106.5 92.5,106.5C 92.5,104.5 92.5,102.5 92.5,100.5 Z"/></g>
<g><path style="opacity:1" fill="#202020" d="M 167.5,100.5 C 167.833,100.5 168.167,100.5 168.5,100.5C 168.5,102.5 168.5,104.5 168.5,106.5C 180.5,106.5 192.5,106.5 204.5,106.5C 204.5,104.5 204.5,102.5 204.5,100.5C 204.833,100.5 205.167,100.5 205.5,100.5C 205.5,102.5 205.5,104.5 205.5,106.5C 192.851,107.594 168.184,107.927 131.5,107.5C 131.5,107.167 131.5,106.833 131.5,106.5C 143.5,106.5 155.5,106.5 167.5,106.5C 167.5,104.5 167.5,102.5 167.5,100.5 Z"/></g>
<g><path style="opacity:1" fill="#282828" d="M -0.5,108.5 C 50.1286,109.829 50.1286,110.496 -0.5,110.5C -0.5,109.833 -0.5,109.167 -0.5,108.5 Z"/></g>
<g><path style="opacity:1" fill="#303030" d="M -0.5,126.5 C -0.5,125.833 -0.5,125.167 -0.5,124.5C 28.8262,123.482 58.1596,123.315 87.5,124C 85.5,124.333 83.5,124.667 81.5,125C 86.1667,125.333 90.8333,125.667 95.5,126C 63.5017,126.5 31.5017,126.667 -0.5,126.5 Z"/></g>
<g><path style="opacity:1" fill="#262626" d="M 71.5,130.5 C 112.509,130.265 153.509,130.765 194.5,132C 148.167,132.667 101.833,132.667 55.5,132C 61.0158,131.827 66.3491,131.327 71.5,130.5 Z"/></g>
<g><path style="opacity:1" fill="#444444" d="M -0.5,134.5 C 18.1667,134.5 36.8333,134.5 55.5,134.5C 71.5,135.167 87.5,135.833 103.5,136.5C 68.8333,136.5 34.1667,136.5 -0.5,136.5C -0.5,135.833 -0.5,135.167 -0.5,134.5 Z"/></g>
<g><path style="opacity:1" fill="#616161" d="M 55.5,134.5 C 100.833,134.5 146.167,134.5 191.5,134.5C 187.5,135.167 183.5,135.833 179.5,136.5C 154.167,136.5 128.833,136.5 103.5,136.5C 87.5,135.833 71.5,135.167 55.5,134.5 Z"/></g>
<g><path style="opacity:1" fill="#2b2b2b" d="M 191.5,134.5 C 207.503,134.333 223.503,134.5 239.5,135C 219.498,135.5 199.498,136 179.5,136.5C 183.5,135.833 187.5,135.167 191.5,134.5 Z"/></g>
<g><path style="opacity:1" fill="#1b1b1b" d="M -0.5,142.5 C 84.834,142.333 170.167,142.5 255.5,143C 165.473,143.685 80.1396,144.851 -0.5,146.5C -0.5,145.167 -0.5,143.833 -0.5,142.5 Z"/></g>
<g><path style="opacity:1" fill="#373737" d="M -0.5,162.5 C -0.5,162.167 -0.5,161.833 -0.5,161.5C 19.3176,161.6 38.9843,160.933 58.5,159.5C 67.1667,159.667 75.8333,159.833 84.5,160C 81.5,160.333 78.5,160.667 75.5,161C 82.1667,161.333 88.8333,161.667 95.5,162C 63.5017,162.5 31.5017,162.667 -0.5,162.5 Z"/></g>
</svg>
